<?xml version="1.0" encoding="utf-8"?>
<!-- Generator: Adobe Illustrator 19.2.1, SVG Export Plug-In . SVG Version: 6.00 Build 0)  -->
<svg version="1.1" id="object" xmlns="http://www.w3.org/2000/svg" xmlns:xlink="http://www.w3.org/1999/xlink" x="0px" y="0px"
	 viewBox="0 0 221 160.6" style="enable-background:new 0 0 221 160.6;" xml:space="preserve">
<style type="text/css">
	.st0{fill:#666666;}
</style>
<title>services-icon_1</title>
<g>
	<path class="st0" d="M219.5,158.7L219.5,158.7l-69.3-1c-0.8,0-1.5-0.7-1.5-1.5s0.7-1.5,1.5-1.5l0,0l66.8,0.9L140.3,4.8l-50.6,97.9
		L119,155c0.3,0.5,0.3,1,0,1.5c-0.3,0.5-0.8,0.7-1.3,0.7l-56.7-0.8c-0.8,0-1.5-0.7-1.5-1.5c0-0.2,0.1-0.5,0.2-0.7l26.7-51.6L61,57.4
		L2.8,154.9c-0.4,0.7-1.3,0.9-2.1,0.5s-0.9-1.3-0.5-2.1l59.5-99.8c0.3-0.5,0.8-0.7,1.3-0.7c0.5,0,1,0.3,1.3,0.8l25.6,45.9l51-98.7
		c0.3-0.5,0.8-0.8,1.3-0.8l0,0c0.6,0,1.1,0.3,1.3,0.8l79.2,155.7c0.4,0.7,0.1,1.6-0.7,2C220,158.6,219.7,158.7,219.5,158.7z
		 M63.4,153.5l51.7,0.7l-27-48.4L63.4,153.5z"/>
	<path class="st0" d="M137.7,160.5c-3.2,0-5.8-2.6-5.8-5.8c0-3.2,2.6-5.8,5.8-5.8s5.8,2.6,5.8,5.8l0,0
		C143.5,157.9,140.9,160.5,137.7,160.5z M137.7,151.9c-1.6,0-2.8,1.3-2.8,2.8c0,1.6,1.3,2.8,2.8,2.8c1.6,0,2.8-1.3,2.8-2.8l0,0
		C140.5,153.2,139.2,151.9,137.7,151.9L137.7,151.9z"/>
</g>
</svg>
