<?xml version="1.0" encoding="utf-8"?>
<!-- Generator: Adobe Illustrator 19.2.1, SVG Export Plug-In . SVG Version: 6.00 Build 0)  -->
<svg version="1.1" id="object" xmlns="http://www.w3.org/2000/svg" xmlns:xlink="http://www.w3.org/1999/xlink" x="0px" y="0px"
	 viewBox="0 0 146.2 148.2" style="enable-background:new 0 0 146.2 148.2;" xml:space="preserve">
<style type="text/css">
	.st0{fill:#666666;}
</style>
<title>services-icon_2</title>
<g>
	<path class="st0" d="M113.3,148.2H1.5c-0.8,0-1.5-0.7-1.5-1.5V34.9c0-0.8,0.7-1.5,1.5-1.5h111.8c0.8,0,1.5,0.7,1.5,1.5v111.8
		C114.8,147.5,114.1,148.2,113.3,148.2z M3,145.2h108.7V36.4H3L3,145.2L3,145.2z"/>
	<path class="st0" d="M144.7,114.8H32.9c-0.8,0-1.5-0.7-1.5-1.5V74.9c0-0.8,0.7-1.5,1.5-1.5h28.5c0.8,0,1.5,0.7,1.5,1.5
		s-0.7,1.5-1.5,1.5h-27v35.4h108.8V3H34.4v31.9c0,0.8-0.7,1.5-1.5,1.5s-1.5-0.7-1.5-1.5V1.5c0-0.8,0.7-1.5,1.5-1.5h111.8
		c0.8,0,1.5,0.7,1.5,1.5v111.8C146.2,114.1,145.5,114.8,144.7,114.8z"/>
	<path class="st0" d="M74.9,80.7c-3.2,0-5.8-2.6-5.8-5.8c0-3.2,2.6-5.8,5.8-5.8s5.8,2.6,5.8,5.8l0,0C80.7,78.1,78.1,80.7,74.9,80.7z
		 M74.9,72c-1.6,0-2.8,1.3-2.8,2.8c0,1.6,1.3,2.8,2.8,2.8c1.6,0,2.8-1.3,2.8-2.8l0,0C77.7,73.3,76.4,72,74.9,72z"/>
</g>
</svg>
