<?xml version="1.0" encoding="utf-8"?>
<!-- Generator: Adobe Illustrator 19.2.1, SVG Export Plug-In . SVG Version: 6.00 Build 0)  -->
<svg version="1.1" id="object" xmlns="http://www.w3.org/2000/svg" xmlns:xlink="http://www.w3.org/1999/xlink" x="0px" y="0px"
	 viewBox="0 0 215.6 169.8" style="enable-background:new 0 0 215.6 169.8;" xml:space="preserve">
<style type="text/css">
	.st0{fill:#666666;}
</style>
<title>services-icon_3</title>
<g>
	<g>
		<path class="st0" d="M84.9,169.8c-0.4,0-0.8-0.2-1.1-0.4L0.4,85.9c-0.6-0.6-0.6-1.5,0-2.1L83.8,0.4c0.6-0.6,1.5-0.6,2.1,0
			l83.4,83.4c0.6,0.6,0.6,1.5,0,2.1l-83.4,83.4C85.6,169.6,85.3,169.8,84.9,169.8z M3.6,84.9l81.3,81.3l81.3-81.3L84.9,3.6L3.6,84.9
			z"/>
		<path class="st0" d="M149.5,151c-0.4,0-0.8-0.2-1.1-0.4l-21.7-21.7c-0.6-0.6-0.5-1.6,0.1-2.1c0.6-0.5,1.5-0.5,2,0l20.6,20.6
			L212,84.9l-62.5-62.5L85.9,85.9c-0.6,0.6-1.6,0.5-2.1-0.1c-0.5-0.6-0.5-1.5,0-2l64.6-64.6c0.6-0.6,1.5-0.6,2.1,0l64.6,64.6
			c0.6,0.6,0.6,1.5,0,2.1l-64.6,64.6C150.3,150.8,149.9,151,149.5,151z"/>
	</g>
	<path class="st0" d="M74.8,100.8c-3.2,0-5.8-2.6-5.8-5.8c0-3.2,2.6-5.8,5.8-5.8c3.2,0,5.8,2.6,5.8,5.8
		C80.6,98.2,78,100.8,74.8,100.8z M74.8,92.1c-1.6,0-2.8,1.3-2.8,2.8c0,1.6,1.3,2.8,2.8,2.8c1.6,0,2.8-1.3,2.8-2.8
		S76.4,92.1,74.8,92.1L74.8,92.1z"/>
</g>
</svg>
