<?xml version="1.0" encoding="utf-8"?>
<!-- Generator: Adobe Illustrator 19.2.1, SVG Export Plug-In . SVG Version: 6.00 Build 0)  -->
<svg version="1.1" id="object" xmlns="http://www.w3.org/2000/svg" xmlns:xlink="http://www.w3.org/1999/xlink" x="0px" y="0px"
	 viewBox="0 0 154.1 177.5" style="enable-background:new 0 0 154.1 177.5;" xml:space="preserve">
<style type="text/css">
	.st0{fill:#666666;}
</style>
<title>services-icon_4</title>
<g>
	<g>
		<path class="st0" d="M77.1,177.5c-0.3,0-0.5-0.1-0.8-0.2L0.8,133.7C0.3,133.5,0,133,0,132.4V45.1c0-0.5,0.3-1,0.8-1.3L76.3,0.2
			c0.5-0.3,1-0.3,1.5,0l75.6,43.6c0.5,0.3,0.8,0.8,0.8,1.3v87.3c0,0.5-0.3,1-0.8,1.3l-75.6,43.6C77.6,177.5,77.3,177.5,77.1,177.5z
			 M3,131.5l74.1,42.8l74.1-42.8V46L77.1,3.2L3,46V131.5L3,131.5z M152.6,132.4L152.6,132.4z"/>
		<path class="st0" d="M1.5,133.9c-0.8,0-1.5-0.7-1.5-1.5c0-0.5,0.3-1,0.8-1.3l124.3-71.8c0.7-0.4,1.6-0.2,2,0.5s0.2,1.6-0.5,2
			L2.3,133.7C2,133.9,1.8,133.9,1.5,133.9z"/>
		<path class="st0" d="M152.6,133.9c-0.3,0-0.5-0.1-0.8-0.2L77.6,90.9c-0.7-0.4-1-1.3-0.5-2s1.3-1,2-0.5l0,0l74.3,42.8
			c0.7,0.4,1,1.3,0.6,2C153.7,133.6,153.2,133.9,152.6,133.9z"/>
		<path class="st0" d="M129.8,145.9c-0.3,0-0.5-0.1-0.8-0.2l-74.3-42.8c-0.7-0.4-1-1.3-0.5-2s1.3-1,2-0.5l0,0l74.3,42.8
			c0.7,0.4,1,1.3,0.6,2C130.8,145.6,130.3,145.9,129.8,145.9z"/>
	</g>
	<path class="st0" d="M133.5,61.4c-3.2,0-5.8-2.6-5.8-5.8c0-3.2,2.6-5.8,5.8-5.8s5.8,2.6,5.8,5.8C139.3,58.7,136.7,61.4,133.5,61.4z
		 M133.5,52.7c-1.6,0-2.8,1.3-2.8,2.8c0,1.6,1.3,2.8,2.8,2.8s2.8-1.3,2.8-2.8C136.3,54,135,52.7,133.5,52.7L133.5,52.7z"/>
</g>
</svg>
