<svg xmlns="http://www.w3.org/2000/svg" width="33.593" height="33.594" viewBox="0 0 33.593 33.594">
  <g id="instagram" transform="translate(0 -0.001)">
    <path id="Контур_5864" data-name="Контур 5864" d="M14.465,5.838a8.619,8.619,0,1,0,8.619,8.619,8.618,8.618,0,0,0-8.619-8.619Zm0,14.214a5.595,5.595,0,1,1,5.595-5.595A5.593,5.593,0,0,1,14.465,20.052Z" transform="translate(2.337 2.333)" fill="#fff"/>
    <path id="Контур_5865" data-name="Контур 5865" d="M23.722.106c-3.091-.144-10.746-.137-13.839,0A10.038,10.038,0,0,0,2.835,2.823C-.4,6.053.017,10.407.017,16.791c0,6.534-.364,10.786,2.818,13.968C6.078,34,10.494,33.576,16.8,33.576c6.472,0,8.706,0,10.995-.882,3.112-1.208,5.46-3.989,5.69-8.985.146-3.092.137-10.746,0-13.839C33.21,3.974,30.045.4,23.722.106Zm4.892,28.515C26.5,30.739,23.559,30.55,16.762,30.55c-7,0-9.8.1-11.853-1.95C2.55,26.253,2.977,22.483,2.977,16.768c0-7.733-.794-13.3,6.968-13.7,1.783-.063,2.308-.084,6.8-.084l.063.042c7.459,0,13.311-.781,13.663,6.979.08,1.771.1,2.3.1,6.784,0,6.917.13,9.741-1.951,11.832Z" transform="translate(0 0)" fill="#fff"/>
    <circle id="Эллипс_470" data-name="Эллипс 470" cx="2.014" cy="2.014" r="2.014" transform="translate(23.749 5.817)" fill="#fff"/>
  </g>
</svg>
